<svg width="400" height="232" viewBox="0 0 400 232" fill="none" xmlns="http://www.w3.org/2000/svg">
<path fill-rule="evenodd" clip-rule="evenodd" d="M166.086 77.9732C163.987 56.8192 145.629 49.8034 122.47 47.8812L122.391 18.528L104.452 18.6066L104.53 47.1866C99.8138 47.2063 94.9945 47.3197 90.2054 47.435L90.1319 18.6651L72.2041 18.7409L72.2761 48.0863C68.3932 48.182 64.5782 48.271 60.8602 48.2884L60.8575 48.1967L36.1172 48.2923L36.1726 67.3757C36.1726 67.3757 49.4183 67.0686 49.1992 67.3112C56.4634 67.2824 58.8399 71.4747 59.5394 75.097L59.6289 108.537C60.1297 108.538 60.7841 108.555 61.5254 108.654C61.347 108.655 61.1651 108.656 60.9801 108.657C60.5451 108.658 60.0933 108.66 59.6307 108.666L59.7502 155.512C59.4385 157.791 58.104 161.429 53.0272 161.458C53.2583 161.66 39.9882 161.511 39.9882 161.511L36.4799 182.865L59.8245 182.766C62.3919 182.758 64.9348 182.775 67.4519 182.791H67.4536C69.1953 182.802 70.9245 182.813 72.641 182.816L72.7274 212.503L90.646 212.43L90.5666 183.056C95.4874 183.136 100.248 183.155 104.897 183.132L104.967 212.37L122.906 212.291L122.832 182.656C152.985 180.804 174.073 173.149 176.618 144.927C178.673 122.204 167.92 112.116 150.792 108.094C161.178 102.774 167.656 93.4516 166.093 77.9737L166.086 77.9719L166.086 77.9732ZM141.158 141.559C141.221 161.915 109.115 161.607 94.4274 161.465C93.1069 161.453 91.9272 161.441 90.9243 161.447L90.8246 122.111C92.0481 122.106 93.5343 122.065 95.218 122.018C110.269 121.601 141.104 120.746 141.158 141.559ZM132.668 86.0982C132.711 104.602 105.978 104.276 93.7252 104.127C92.6126 104.114 91.6194 104.102 90.7764 104.105L90.6835 68.4313C91.7076 68.4269 92.9533 68.3887 94.3654 68.3455H94.3655C106.917 67.9614 132.616 67.175 132.669 86.0979L132.668 86.0982ZM324.984 161.791C319.509 161.791 314.593 161.031 310.233 159.512C305.874 157.993 302.174 155.866 299.133 153.131C296.193 150.296 293.912 147.004 292.29 143.257C290.769 139.408 290.009 135.205 290.009 130.648L311.298 129.129C311.298 137.737 315.86 142.042 324.984 142.042C329.241 142.042 332.435 141.079 334.564 139.155C336.794 137.13 337.909 134.8 337.909 132.167C337.909 129.736 336.743 127.863 334.411 126.546C332.08 125.23 329.14 124.014 325.592 122.9C322.145 121.786 318.394 120.621 314.339 119.406C310.284 118.191 306.483 116.52 302.934 114.393C299.488 112.165 296.598 109.278 294.267 105.734C291.935 102.189 290.769 97.5807 290.769 91.9092C290.769 88.2632 291.53 84.8198 293.05 81.5789C294.672 78.2367 296.953 75.3503 299.893 72.9197C302.833 70.3877 306.381 68.3622 310.538 66.843C314.795 65.3239 319.611 64.5643 324.984 64.5643C330.154 64.5643 334.766 65.3239 338.821 66.843C342.978 68.3622 346.475 70.489 349.314 73.2235C352.254 75.958 354.484 79.1989 356.004 82.9462C357.626 86.5921 358.437 90.5926 358.437 94.9475L337.149 96.4667C337.149 92.6181 336.084 89.6305 333.955 87.5036C331.826 85.3768 328.836 84.3134 324.984 84.3134C321.537 84.3134 318.749 85.2755 316.62 87.1998C314.593 89.0228 313.579 91.099 313.579 93.4284C313.579 95.7577 314.745 97.5301 317.076 98.7454C319.408 99.9608 322.297 101.125 325.744 102.24C329.292 103.252 333.094 104.366 337.149 105.582C341.204 106.797 344.955 108.519 348.401 110.747C351.949 112.975 354.889 115.912 357.221 119.558C359.553 123.204 360.718 127.913 360.718 133.686C360.718 137.535 359.907 141.181 358.285 144.624C356.765 147.966 354.484 150.903 351.443 153.435C348.401 155.967 344.65 157.993 340.19 159.512C335.729 161.031 330.661 161.791 324.984 161.791ZM216.914 158.145C222.693 160.575 228.826 161.791 235.314 161.791C241.802 161.791 247.884 160.575 253.562 158.145C259.34 155.613 264.358 152.169 268.616 147.814C272.874 143.358 276.219 138.193 278.652 132.319C281.186 126.445 282.454 120.064 282.454 113.177C282.454 106.392 281.186 100.062 278.652 94.188C276.219 88.2126 272.874 83.0474 268.616 78.6925C264.358 74.2363 259.34 70.7928 253.562 68.3622C247.884 65.8302 241.802 64.5643 235.314 64.5643C228.826 64.5643 222.693 65.8302 216.914 68.3622C211.237 70.7928 206.27 74.2363 202.012 78.6925C197.754 83.0474 194.358 88.2126 191.824 94.188C189.391 100.062 188.174 106.392 188.174 113.177C188.174 120.064 189.391 126.445 191.824 132.319C194.358 138.193 197.754 143.358 202.012 147.814C206.27 152.169 211.237 155.613 216.914 158.145ZM245.046 138.548C242.005 139.864 238.761 140.522 235.314 140.522C231.867 140.522 228.623 139.864 225.582 138.548C222.541 137.13 219.854 135.205 217.523 132.775C215.292 130.344 213.518 127.458 212.2 124.115C210.882 120.773 210.223 117.127 210.223 113.177C210.223 109.228 210.882 105.582 212.2 102.24C213.518 98.8974 215.292 96.0109 217.523 93.5803C219.854 91.1496 222.541 89.276 225.582 87.9594C228.623 86.5415 231.867 85.8326 235.314 85.8326C238.761 85.8326 242.005 86.5415 245.046 87.9594C248.087 89.276 250.723 91.1496 252.953 93.5803C255.285 96.0109 257.11 98.8974 258.428 102.24C259.745 105.582 260.404 109.228 260.404 113.177C260.404 117.127 259.745 120.773 258.428 124.115C257.11 127.458 255.285 130.344 252.953 132.775C250.723 135.205 248.087 137.13 245.046 138.548Z" fill="#FF5E2A"/>
</svg>
