<svg width="400" height="232" viewBox="0 0 400 232" fill="none" xmlns="http://www.w3.org/2000/svg">
<g clip-path="url(#clip0_153_862)">
<path d="M166.085 78.0486C163.986 56.8741 145.629 49.8515 122.469 47.9275L122.391 18.5459L104.452 18.6246L104.53 47.2323C99.8133 47.252 94.994 47.3654 90.2049 47.4809L90.1314 18.6831L72.2036 18.7591L72.2756 48.1328C68.3927 48.2286 64.5777 48.3177 60.8597 48.335L60.857 48.2433L36.1167 48.339L36.1721 67.4408C36.1721 67.4408 49.4179 67.1334 49.1988 67.3763C56.4629 67.3474 58.8395 71.5438 59.5389 75.1696L59.6284 108.642C60.1292 108.643 60.7836 108.66 61.5249 108.759C60.927 108.763 60.2895 108.762 59.6303 108.771L59.7497 155.663C59.438 157.943 58.1036 161.585 53.0267 161.615C53.2578 161.816 39.9877 161.667 39.9877 161.667L36.4794 183.042L59.824 182.943C64.1684 182.93 68.4428 182.985 72.6405 182.993L72.7269 212.709L90.6455 212.635L90.5661 183.233C95.4869 183.313 100.247 183.332 104.897 183.309L104.967 212.575L122.905 212.496L122.832 182.833C152.985 180.979 174.073 173.316 176.617 145.067C178.673 122.322 167.919 112.224 150.791 108.198C161.178 102.873 167.656 93.5419 166.092 78.0491L166.086 78.0472L166.085 78.0486ZM141.158 141.696C141.226 163.904 103.081 161.54 90.9238 161.603L90.8241 122.229C102.985 122.182 141.098 118.533 141.158 141.696ZM132.667 86.1814C132.715 106.385 100.902 104.163 90.7759 104.206L90.683 68.4974C100.809 68.454 132.609 65.1089 132.668 86.1811L132.667 86.1814Z" fill="white"/>
</g>
<path d="M289.262 126.603L311.615 125.007C311.615 134.107 316.405 138.578 325.985 138.578C334.926 138.578 339.557 133.788 339.557 128.2C339.557 113.032 290.06 121.813 290.06 85.8882C290.06 70.7199 303.632 57.1483 325.985 57.1483C347.54 57.1483 361.112 70.7199 361.112 89.0816L338.758 90.6782C338.758 82.5352 334.128 77.9049 325.985 77.9049C318.8 77.9049 314.01 82.5352 314.01 87.4849C314.01 101.855 363.507 93.0732 363.507 129.796C363.507 145.763 349.935 159.335 325.985 159.335C302.833 159.335 289.262 145.763 289.262 126.603Z" fill="white"/>
<path d="M231.833 136.981C246.362 136.981 258.177 124.847 258.177 108.242C258.177 91.6362 246.362 79.5016 231.833 79.5016C217.303 79.5016 205.488 91.6362 205.488 108.242C205.488 124.847 217.303 136.981 231.833 136.981ZM231.833 159.335C204.53 159.335 182.336 136.981 182.336 108.242C182.336 79.5016 204.53 57.1483 231.833 57.1483C259.135 57.1483 281.329 79.5016 281.329 108.242C281.329 136.981 259.135 159.335 231.833 159.335Z" fill="white"/>
<defs>
<clipPath id="clip0_153_862">
<rect width="150.801" height="201.068" fill="white" transform="translate(0 36.986) rotate(-14.1974)"/>
</clipPath>
</defs>
</svg>
